# xmcd
#
# Track frame offsets:
#	150
#	18804
#	38181
#	50606
#	71423
#	90928
#	104293
#	123407
#	144172
#	165047
#	180829
#	196800
#
# Disc length: 2995 seconds
#
# Revision: 0
# Processed by: cddbd v1.4PL0 Copyright (c) Steve Scherf et al.
# Submitted via: EasyCDDAExtractor 4.6.9.1
#
DISCID=830bb10c
DTITLE=Roger Creager - Long Way To Mexico
DYEAR=2003
DGENRE=Country
TTITLE0=Good Old Days
TTITLE1=Love Is So Sweet
TTITLE2=Shreveport To New Orleans
TTITLE3=All For the Sake of the Song
TTITLE4=Gypsyland
TTITLE5=Some Get Rich
TTITLE6=Waiting On You
TTITLE7=I Say When I Drink What I Think When I'm Sober
TTITLE8=Delicacy of a Rose
TTITLE9=Long Way to Mexico
TTITLE10=Love is Crazy
TTITLE11=Late Night Case of the Blues
EXTD=
EXTT0=
EXTT1=
EXTT2=
EXTT3=
EXTT4=
EXTT5=
EXTT6=
EXTT7=
EXTT8=
EXTT9=
EXTT10=
EXTT11=
PLAYORDER=
